<svg xmlns="http://www.w3.org/2000/svg" width="100%" viewBox="0 0 256 256" fill="none" style="max-width: 256px;">
  <defs>
    
    <linearGradient id="bg" x1="28" y1="24" x2="228" y2="232" gradientUnits="userSpaceOnUse">
      <stop stop-color="#29D776"/>
      <stop offset="1" stop-color="#09B75B"/>
    </linearGradient>
    
    <radialGradient id="bgGlow" cx="0" cy="0" r="1" gradientUnits="userSpaceOnUse" gradientTransform="translate(92 62) rotate(42.41) scale(124.447 83.2971)">
      <stop stop-color="#7AF2A5" stop-opacity="0.55"/>
      <stop offset="1" stop-color="#7AF2A5" stop-opacity="0"/>
    </radialGradient>
    
    <radialGradient id="tomatoBody" cx="0" cy="0" r="1" gradientUnits="userSpaceOnUse" gradientTransform="translate(103 103) rotate(53.7) scale(130 120)">
      <stop stop-color="#FFA291"/>
      <stop offset="0.3" stop-color="#FF715F"/>
      <stop offset="0.7" stop-color="#ED4A3D"/>
      <stop offset="1" stop-color="#C92E28"/>
    </radialGradient>
    
    <radialGradient id="tomatoVolume" cx="0" cy="0" r="1" gradientUnits="userSpaceOnUse" gradientTransform="translate(157 162) rotate(145) scale(98 80)">
      <stop stop-color="#A91D20" stop-opacity="0.48"/>
      <stop offset="1" stop-color="#A91D20" stop-opacity="0"/>
    </radialGradient>
    
    <radialGradient id="tomatoHighlight" cx="0" cy="0" r="1" gradientUnits="userSpaceOnUse" gradientTransform="translate(97 100) rotate(-28.8) scale(41 24)">
      <stop stop-color="#FFE0D8" stop-opacity="0.85"/>
      <stop offset="1" stop-color="#FFE0D8" stop-opacity="0"/>
    </radialGradient>
    
    <linearGradient id="ring" x1="88" y1="91" x2="177" y2="159" gradientUnits="userSpaceOnUse">
      <stop stop-color="#FFD273"/>
      <stop offset="1" stop-color="#FFA237"/>
    </linearGradient>
    
    <radialGradient id="dialOuter" cx="0" cy="0" r="1" gradientUnits="userSpaceOnUse" gradientTransform="translate(117 131) rotate(54.1623) scale(63.2821)">
      <stop stop-color="#FFF9F2"/>
      <stop offset="1" stop-color="#FFE8C7"/>
    </radialGradient>
    
    <radialGradient id="dialInner" cx="0" cy="0" r="1" gradientUnits="userSpaceOnUse" gradientTransform="translate(120 137) rotate(51.8014) scale(41.9955)">
      <stop stop-color="#FFFFFF"/>
      <stop offset="1" stop-color="#FFF5E8"/>
    </radialGradient>
    
    <filter id="cardShadow" x="-20%" y="-20%" width="140%" height="140%" filterUnits="userSpaceOnUse" color-interpolation-filters="sRGB">
      <feDropShadow dx="0" dy="12" stdDeviation="12" flood-color="#03863F" flood-opacity="0.18"/>
      <feComponentTransfer>
        <feFuncA type="linear" slope="1"/>
      </feComponentTransfer>
    </filter>
    
    <filter id="fruitShadow" x="-20%" y="-20%" width="140%" height="140%" filterUnits="userSpaceOnUse" color-interpolation-filters="sRGB">
      <feDropShadow dx="0" dy="10" stdDeviation="9" flood-color="#A72B26" flood-opacity="0.24"/>
      <feComponentTransfer>
        <feFuncA type="linear" slope="1"/>
      </feComponentTransfer>
    </filter>
  </defs>
  
  <g filter="url(#cardShadow)">
    <rect x="28" y="28" width="200" height="200" rx="52" fill="url(#bg)"/>
    <rect x="28" y="28" width="200" height="200" rx="52" fill="url(#bgGlow)"/>
  </g>
  
  <g filter="url(#fruitShadow)">
    
    <path d="M128 67C143 67 157 70.5 169 77.2C177 81.7 183.5 87.8 188.2 95.4C197.3 109.6 200.7 128.8 197.6 147.7C192.1 183.8 163 209 128 209C93 209 63.9 183.8 58.4 147.7C55.3 128.8 58.7 109.6 67.8 95.4C72.5 87.8 79 81.7 87 77.2C99 70.5 113 67 128 67Z" fill="url(#tomatoBody)"/>
    
    <path d="M128 67C143 67 157 70.5 169 77.2C177 81.7 183.5 87.8 188.2 95.4C197.3 109.6 200.7 128.8 197.6 147.7C192.1 183.8 163 209 128 209C93 209 63.9 183.8 58.4 147.7C55.3 128.8 58.7 109.6 67.8 95.4C72.5 87.8 79 81.7 87 77.2C99 70.5 113 67 128 67Z" fill="url(#tomatoVolume)"/>
    
    <ellipse cx="128" cy="80" rx="16" ry="5.5" fill="#B53B34" opacity="0.22"/>
    
    <path d="M91 86C102 79.5 115 75.5 128 75.5C145 75.5 159 80.5 169 89.8" stroke="#FFBAAD" stroke-width="8.8" stroke-linecap="round" opacity="0.62"/>
    
    <ellipse cx="97" cy="100" rx="21" ry="12" transform="rotate(-29 97 100)" fill="url(#tomatoHighlight)"/>
  </g>
  
  <path d="M88 95C98 85 113 79 129 79C157 79 180 99 180 127" stroke="url(#ring)" stroke-width="15" stroke-linecap="round"/>
  
  <g>
    
    <circle cx="128" cy="130" r="41" fill="url(#dialOuter)"/>
    
    <circle cx="128" cy="130" r="30" fill="url(#dialInner)"/>
    
    <circle cx="128" cy="130" r="41" stroke="#F3D1A8" stroke-width="2" opacity="0.72"/>
    
    <path d="M128 115V131L144 142" stroke="#E97E22" stroke-width="10" stroke-linecap="round" stroke-linejoin="round"/>
  </g>
</svg>